<?xml version="1.0" standalone="no"?><svg xmlns="http://www.w3.org/2000/svg" viewBox="0 0 1440 320"><path fill="#9EE1FF" fill-opacity="1" d="M0,160L40,170.7C80,181,160,203,240,176C320,149,400,75,480,74.7C560,75,640,149,720,154.7C800,160,880,96,960,96C1040,96,1120,160,1200,181.3C1280,203,1360,181,1400,170.7L1440,160L1440,320L1400,320C1360,320,1280,320,1200,320C1120,320,1040,320,960,320C880,320,800,320,720,320C640,320,560,320,480,320C400,320,320,320,240,320C160,320,80,320,40,320L0,320Z"></path></svg>